<svg viewBox="0 0 256 256" xmlns="http://www.w3.org/2000/svg" role="img" aria-label="TAI Echo Bubble">
  <defs>
    <linearGradient id="eb-bubble" x1="0" y1="0" x2="0" y2="1">
      <stop offset="0%"  stop-color="#1E293B"/>
      <stop offset="100%" stop-color="#0F172A"/>
    </linearGradient>
    <linearGradient id="eb-reply" x1="0" y1="0" x2="1" y2="1">
      <stop offset="0%"  stop-color="#8B5CF6"/>
      <stop offset="100%" stop-color="#0EA5E9"/>
    </linearGradient>
  </defs>

  <path d="M 24 56
           Q 24 30, 50 30
           L 198 30
           Q 224 30, 224 56
           L 224 162
           Q 224 188, 198 188
           L 86 188
           L 56 222
           L 64 188
           L 50 188
           Q 24 188, 24 162 Z"
        fill="url(#eb-bubble)"/>

  <rect x="50" y="62" width="60" height="13" rx="3" fill="#FFFFFF"/>
  <rect x="74" y="62" width="13" height="80" rx="3" fill="#FFFFFF"/>
  <g fill="#0EA5E9">
    <circle cx="80" cy="100" r="3"/>
    <circle cx="80" cy="116" r="3"/>
    <circle cx="80" cy="132" r="3"/>
  </g>

  <path d="M 124 142 L 158 62 L 192 142"
        fill="none" stroke="#FFFFFF" stroke-width="11"
        stroke-linecap="round" stroke-linejoin="round"/>
  <rect x="138" y="112" width="40" height="9" rx="3" fill="#FFFFFF"/>
  <g fill="#10B981">
    <circle cx="148" cy="86" r="2.5"/>
    <circle cx="158" cy="86" r="2.5"/>
    <circle cx="168" cy="86" r="2.5"/>
  </g>

  <g>
    <circle cx="86"  cy="166" r="3.5" fill="#0EA5E9"/>
    <circle cx="100" cy="166" r="3.5" fill="#0EA5E9"/>
    <circle cx="114" cy="166" r="3.5" fill="#0EA5E9"/>
  </g>

  <circle cx="216" cy="216" r="22" fill="url(#eb-reply)"/>
  <text x="216" y="217" font-family="Inter, ui-sans-serif, system-ui, sans-serif"
        font-weight="900" font-size="16" letter-spacing="-0.04em"
        fill="#FFFFFF" text-anchor="middle" dominant-baseline="central">AI</text>
  <circle cx="240" cy="200" r="4" fill="#0EA5E9" opacity="0.7"/>
  <circle cx="244" cy="190" r="2" fill="#0EA5E9" opacity="0.5"/>
</svg>
