<svg viewBox="0 0 256 256" xmlns="http://www.w3.org/2000/svg" role="img" aria-label="TAI Bot Buddy">
  <defs>
    <linearGradient id="bb-head" x1="0" y1="0" x2="0" y2="1">
      <stop offset="0%"  stop-color="#1E293B"/>
      <stop offset="100%" stop-color="#0F172A"/>
    </linearGradient>
    <radialGradient id="bb-eye" cx="0.4" cy="0.35" r="0.7">
      <stop offset="0%"  stop-color="#67E8F9"/>
      <stop offset="60%" stop-color="#0EA5E9"/>
      <stop offset="100%" stop-color="#0369A1"/>
    </radialGradient>
    <radialGradient id="bb-spark" cx="0.4" cy="0.35" r="0.7">
      <stop offset="0%"  stop-color="#FFFFFF"/>
      <stop offset="40%" stop-color="#34D399"/>
      <stop offset="100%" stop-color="#10B981"/>
    </radialGradient>
  </defs>

  <line x1="128" y1="20" x2="128" y2="58" stroke="#0F172A" stroke-width="6" stroke-linecap="round"/>
  <circle cx="128" cy="14" r="10" fill="url(#bb-spark)"/>
  <circle cx="128" cy="14" r="4" fill="#FFFFFF"/>

  <rect x="38" y="60" width="180" height="160" rx="42" fill="url(#bb-head)"/>

  <rect x="46" y="80" width="164" height="14" rx="6" fill="#8B5CF6"/>
  <circle cx="58" cy="87" r="3" fill="#FFFFFF" opacity="0.85"/>
  <circle cx="198" cy="87" r="3" fill="#FFFFFF" opacity="0.85"/>

  <g>
    <circle cx="92" cy="138" r="16" fill="url(#bb-eye)"/>
    <circle cx="88" cy="134" r="4.5" fill="#FFFFFF"/>
    <circle cx="164" cy="138" r="16" fill="url(#bb-eye)"/>
    <circle cx="160" cy="134" r="4.5" fill="#FFFFFF"/>
  </g>

  <path d="M 92 184 Q 128 208, 164 184"
        fill="none" stroke="#FFFFFF" stroke-width="6.5" stroke-linecap="round"/>

  <line x1="62"  y1="172" x2="92"  y2="200" stroke="#FFFFFF" stroke-width="1.5" opacity="0.18"/>
  <line x1="194" y1="172" x2="164" y2="200" stroke="#FFFFFF" stroke-width="1.5" opacity="0.18"/>

  <rect x="116" y="200" width="24" height="14" rx="3" fill="#FFFFFF" opacity="0.12"/>
  <text x="128" y="207" font-family="Inter, ui-sans-serif, system-ui, sans-serif"
        font-weight="900" font-size="10" letter-spacing="0.02em"
        fill="#FFFFFF" opacity="0.7" text-anchor="middle" dominant-baseline="central">TA</text>

  <g transform="translate(216, 86)">
    <circle r="14" fill="#0EA5E9"/>
    <circle cx="-5" r="2.2" fill="#FFFFFF"/>
    <circle      r="2.2" fill="#FFFFFF"/>
    <circle cx="5"  r="2.2" fill="#FFFFFF"/>
  </g>
</svg>
